# xmcd
#
# Track frame offsets:
#      150
#      22807
#      44932
#      66192
#      85387
#      110990
#      142240
#      161237
#      191897
#      215812
#      238930
#      262445
# 
# Disc length: 3784 seconds
#
# Revision: 3
# Processed by: cddbd v1.4PL0 Copyright (c) Steve Scherf et al.
#
# Submitted via: FreeRIP 1.21
#
DISCID=d20ec60c
DTITLE=Billy Idol - Sweet 16
DYEAR=1994
DGENRE=Punk Rock
TTITLE0=Dancin' With Myself
TTITLE1=Sweet 16
TTITLE2=Baby Talk
TTITLE3=Mony, Mony
TTITLE4=Kiss Me Deadly
TTITLE5=White Wedding
TTITLE6=Blue Highway
TTITLE7=Flesh For Fantasy
TTITLE8=World's Forgotten Boy
TTITLE9=Eyes Without A Face
TTITLE10=Rebel Yell
TTITLE11=To Be A Lover
EXTD=Live in USA, Mountain View
EXTT0=
EXTT1=
EXTT2=
EXTT3=
EXTT4=
EXTT5=
EXTT6=
EXTT7=
EXTT8=
EXTT9=
EXTT10=
EXTT11=
PLAYORDER=
